<svg id="Ebene_3" data-name="Ebene 3" xmlns="http://www.w3.org/2000/svg" viewBox="100 60 900 800"><defs><style>.cls-1{fill:#00c960;}.cls-2,.cls-3{font-size:120px;}.cls-2,.cls-3,.cls-4,.cls-6,.cls-8{fill:#fff;}.cls-2,.cls-4{stroke:#00c960;stroke-linecap:round;stroke-linejoin:round;}.cls-2{stroke-width:30px;}.cls-2,.cls-3,.cls-4,.cls-6{font-family:BrushUp, Brush Up;}.cls-4,.cls-6{font-size:185px;letter-spacing:0.03em;}.cls-4{stroke-width:40px;}.cls-5{font-size:170px;}.cls-7{font-size:189px;letter-spacing:0.02em;}</style></defs><path class="cls-1" d="M613,407.63c9.65,0,9.67-15,0-15s-9.67,15,0,15Z"/><path class="cls-1" d="M256.13,489c9.65,0,9.67-15,0-15s-9.67,15,0,15Z"/><path class="cls-1" d="M671.13,354.57l92.54-62.85,12.93-8.78-10.26-10.26-.94,1.7c-4.69,8.45,8.26,16,13,7.57l.94-1.7c3.44-6.2-3.78-14.67-10.26-10.26l-92.54,62.84-12.93,8.79c-7.94,5.39-.44,18.39,7.57,12.95Z"/><path class="cls-1" d="M667.22,628c5.88,4.19,12.8,7.32,19.14,10.76,5.86,3.17,11.75,6.28,17.62,9.42l37.87,20.26q18.28,9.78,36.46,19.76c5.72,3.13,11.48,6.21,17.34,9.07,6,3,12.63,6.66,19.24,8l2.28-16.86a14.42,14.42,0,0,0-7.66,1.51c-3.29,1.73-3.82,5.87-2.34,8.92,1.23,2.53,3.42,4,5.67,5.56,9,6.35,18.59-9.76,8.66-14.82-6.15-3.13-13-4.9-19.41-7.58-5.67-2.37-11.23-5-16.78-7.61-12.86-6.07-25.62-12.32-38.38-18.59L709.2,637.26c-6.28-3.09-12.55-6.23-18.87-9.25s-12.69-6.66-19.35-8.93c-5.56-1.9-8,5.9-3.76,8.91Z"/><path class="cls-1" d="M517.67,708.4a10.23,10.23,0,0,0-.83-6.32c-1.46-3.23-7.1-4-9.32-1.2a4.38,4.38,0,0,1,2.53-1.39c-2.83.46-4.38,3.47-4.58,6,.15-1.88.14-1.09,0,.08-.2,1.38-.37,2.75-.54,4.13-.09.67-.43,3.6-.22,1.83-.23,2-.36,3.88-.48,5.84l-1.36,23.27c-1,18.1-1.63,36.23-2.42,54.34-.28,6.55-1.95,14.16-.64,20.64,1.9,9.45,16.3,8.89,18.55,0,1.38-5.41.25-12,.23-17.56,0-8.35.09-16.7.14-25.05.1-17.64.11-35.27-.06-52.91,0-4.9-.55-9.73-.7-14.61-.08-2.57-1.87-5.48-4.58-6h0l3.65,2.81-.14-.21L511.71,711l-1.4-.67c2,2.34,6.9,1.29,7.36-1.94Z"/><path class="cls-1" d="M281.38,752.2c34.46-32.35,66.31-67.64,99.06-101.68,5.66-5.88,17-14,14.85-23.2l-2.13,8.07,0,0c7.25-7.82-4.46-19.59-11.73-11.73l0,0,8.08-2.13c-9.24-1.33-14.5,7.34-19.95,13.44L344,663.65c-19.37,21.7-39,43.17-58,65.27-4.3,5-8.55,10.05-12.7,15.19-4.53,5.62,2.6,13.24,8.09,8.09Z"/><path class="cls-1" d="M523,104.44c-4.22,60.24-7.26,120.58-10,180.91-.26,5.69-.67,11.4-.72,17.1-.09,9.65,14.91,9.66,15,0,.13-15.67,1.38-31.4,2.14-47q2.34-48,5.1-95.92,1.6-27.54,3.49-55c.68-9.64-14.32-9.59-15,0Z"/><path class="cls-1" d="M130.86,432c51.13,6.07,102.39,11.11,153.65,16l13.61,1.3c9.6.9,9.54-14.1,0-15q-60.33-5.67-120.58-12.1-23.35-2.49-46.68-5.23c-4-.48-7.5,3.79-7.5,7.5,0,4.45,3.46,7,7.5,7.5Z"/><path class="cls-1" d="M274.78,206.46c32,40.19,64.77,79.73,97.64,119.18L381,335.93c6.2,7.42,16.77-3.24,10.61-10.6q-38.83-46.44-77.1-93.37-14.65-18-29.12-36.11c-2.54-3.19-7.94-2.6-10.61,0-3.16,3.1-2.5,7.46,0,10.61Z"/><path class="cls-1" d="M522.27,519.18a94.5,94.5,0,0,1,4.67-8.34l-19.41,30.25a105.41,105.41,0,0,1,16.55-19.34l-26.41,24.36a169.73,169.73,0,0,1,34-23.49l-32.2,17a160.16,160.16,0,0,1,39.09-14.59l-36.77,8.25a125.77,125.77,0,0,1,31-2.75l-37.65-1.75a106.06,106.06,0,0,1,26.55,4.85L487,522.49a102,102,0,0,1,21.5,10.07l-30.24-19.41a90.68,90.68,0,0,1,17,14l-24.37-26.41A80.51,80.51,0,0,1,482,516.28l-17-32.2a49.4,49.4,0,0,1,4,9.95l-8.25-36.77a30.24,30.24,0,0,1,.63,7L463,426.59l-.21,1.76a106.42,106.42,0,0,0,2.39,56A104.58,104.58,0,0,0,486.37,535a106.1,106.1,0,0,0,39.48,36.11A105.88,105.88,0,0,0,575.65,592l37.64,1.75a139.85,139.85,0,0,0,69-25.29l26.41-24.37a140.42,140.42,0,0,0,30.6-64.91,380.34,380.34,0,0,0,2-39.4c0-1.19.06-2.33-.05-3.51-1.33-14.22-4.94-28.41-9.3-42a53.09,53.09,0,0,0-2.68-6.65c-5.21-11.07-11.9-23.08-17.85-33.78-.73-1.3-1.44-2.59-2.22-3.85a76.53,76.53,0,0,0-6.94-9.48c-10.27-11.93-20.69-24.31-32.65-34.72a91.72,91.72,0,0,0-9.41-7.11c-12.64-8.42-25.92-18-39.89-24.92-17.92-8.89-37.67-14.76-57.12-19.1a99.61,99.61,0,0,0-11.76-1.89c-8-.81-16.33-.91-24.26-1.27-8.44-.39-17.2-1.12-25.76-1a117.76,117.76,0,0,0-14.65,1.18c-16.69,2.36-33.21,6.71-49.53,10.72a153,153,0,0,0-27.87,9.91c-14.69,6.83-29,14.75-43.11,22.6q-6.75,3.74-13.16,8c-4,2.68-7.93,5.52-11.68,8.56A454.24,454.24,0,0,0,304.79,345,98.9,98.9,0,0,0,295,356.52c-8.19,11.36-15.76,23.54-22.94,35.53-1.37,2.29-2.64,4.6-3.83,7a104.53,104.53,0,0,0-12.05,53.49,106.45,106.45,0,0,0,7.38,55.6,105.7,105.7,0,0,0,29.22,45.4,106.13,106.13,0,0,0,42.42,32.62l34.67,11.18a141.43,141.43,0,0,0,74.42-6.51l32.2-17a141.25,141.25,0,0,0,45.82-54.6Z"/><path class="cls-1" d="M374.2,391.24c-.75.24-1.36.55-2.09.84-2.6,1.05-30.54,15.86-32.64,17.35-2.65,1.88-24.51,22.15-26.87,24.68-.49.53-1,1.05-1.49,1.59-1.33,1.44-18.93,29.18-19.71,30.71-.34.67-.67,1.34-1,2-1.12,2.37-10.79,32.41-11.38,35.21-.17.76-.35,1.51-.49,2.28l-.08,1.19-1.74,37.64c0,.6,0,1.19.08,1.79.54,6.11,4.76,21.65,4.42,20.14.86,3.83,2.45,13.32,4.47,19.53,8.19,25.09,26.38,47.12,45.56,64.45.52.47,1.07.89,1.62,1.33,8.1,6.32,22.49,14.94,31.4,20.2a47.76,47.76,0,0,0,4.41,2.36c13.82,6.24,29,9.86,43.41,14.38a210.36,210.36,0,0,0,26.55,6.54,213.42,213.42,0,0,0,25.83,2.85c18.8,1,38.11,3,57,1.37s38.73-7,56.65-11.48a97.8,97.8,0,0,0,19.31-6.88c12.17-5.89,24.28-12.41,36.06-19,1.67-.94,3.33-1.91,4.94-3a78.25,78.25,0,0,0,9.13-7c9.73-8.58,24-20.17,33.42-31.73,2.92-3.57,5.47-7.38,8.75-10.65l-26.41,24.36a29.19,29.19,0,0,1,3.65-2.8l-32.2,17a23.3,23.3,0,0,1,3.83-1.6l-36.77,8.26a19.07,19.07,0,0,1,4-.48L568.26,653a11.09,11.09,0,0,1,2.61.41L536.2,642.24a9,9,0,0,1,2.38,1.08l-30.25-19.41a8.7,8.7,0,0,1,2,1.75L486,599.24l.73,1-17-32.2a13.25,13.25,0,0,1,1.27,3.45l-8.26-36.77a11.91,11.91,0,0,1,.15,2.53l1.75-37.64a24.52,24.52,0,0,1-1.05,5.3l11.19-34.66a36.46,36.46,0,0,1-3.06,6.32l19.41-30.25A83.83,83.83,0,0,1,479,460.46L505.4,436.1a100.61,100.61,0,0,1-21,14.69l32.2-17a136.28,136.28,0,0,1-31.54,11.35l36.77-8.26a195.35,195.35,0,0,1-50,4.23l37.65,1.75a124.17,124.17,0,0,1-31.34-5.09l34.67,11.19a81,81,0,0,1-17.32-8.08l30.25,19.41A81.58,81.58,0,0,1,511,448l24.36,26.42a83.15,83.15,0,0,1-11.95-16.83l17,32.2a79.32,79.32,0,0,1-6.68-17.95l8.26,36.77c-.22-1-.42-1.93-.6-2.9a105.87,105.87,0,0,0-16.77-52.87,105.31,105.31,0,0,0-32.88-42.51,105.38,105.38,0,0,0-47.58-25,105.88,105.88,0,0,0-55-7.34l-36.77,8.26a140.23,140.23,0,0,0-58.61,41.4l-19.41,30.24a139.87,139.87,0,0,0-12.93,72.31c3.25,16.65,5.86,34.82,12.41,50.93a267.31,267.31,0,0,0,23.9,45.26c9,13.79,23,27.21,33.59,37.94a83.16,83.16,0,0,0,12.46,10.39c12.51,8.56,28.36,20.38,43.82,26.51,16.58,6.57,33.95,12.67,51.6,16a141.7,141.7,0,0,0,18.49,2.05c17.93.95,36.55,2.48,54.73,1.83a187.63,187.63,0,0,0,32.37-3.95c21.47-4.56,45.51-8.31,65.89-18,19.19-9.14,40.79-19,57-33.66C679.73,654.7,693,644.35,703,631.6q1.34-1.73,2.59-3.5c6.45-9.1,14.55-21.69,20.16-31.38,7.3-12.58,11-28.6,14.45-41.65,3.81-14.43,3.48-30,2.43-44.82l-4.13-18.39q-2.16-9.8-4.4-19.59a160.51,160.51,0,0,0-18.76-35.46c-30.75-43-83.95-67.21-136.59-61.8-26.67,2.74-52.16,11.73-74.15,27.18a188,188,0,0,0-32.31,29.51c-4.45,5-8.05,10.54-13,15.19l26.41-24.37a80,80,0,0,1-15.24,10.78l32.2-17a102.78,102.78,0,0,1-24.7,9l36.78-8.26a145.76,145.76,0,0,1-37.09,3.08l37.65,1.74A207.73,207.73,0,0,1,462,412.2l34.67,11.18a57.23,57.23,0,0,1-12.25-5.26l30.24,19.41a27.62,27.62,0,0,1-4.26-3.6l24.37,26.41a20.17,20.17,0,0,1-2.23-3.28l17,32.2a11.5,11.5,0,0,1-.79-2.22L557,523.81a18.45,18.45,0,0,1-.38-3.55l-1.75,37.65a18.35,18.35,0,0,1,.57-3.47l-11.19,34.67a14.74,14.74,0,0,1,1.5-3l-19.41,30.24a9,9,0,0,1,1.49-1.59l-26.41,24.36.9-.62-32.2,17a7.69,7.69,0,0,1,2.08-.84,105.8,105.8,0,0,0,45.41-29.22A106.19,106.19,0,0,0,550.25,583a104.64,104.64,0,0,0,12.06-53.49,106.56,106.56,0,0,0-7.39-55.6l-17-32.2a141.35,141.35,0,0,0-54.61-45.82l-34.67-11.18a141.39,141.39,0,0,0-74.41,6.51Z"/><path class="cls-1" d="M476.31,350.84a12.36,12.36,0,0,1-2.15-1.08l30.25,19.41a17.57,17.57,0,0,1-2.66-2.29l24.37,26.41a20.08,20.08,0,0,1-2-2.93l17,32.2a22.5,22.5,0,0,1-1.56-4.58l8.25,36.77a26.57,26.57,0,0,1-.33-5l-1.74,37.65a25.49,25.49,0,0,1,.91-4.9l-11.18,34.67a26.22,26.22,0,0,1,2.4-4.87l-19.41,30.24a35.71,35.71,0,0,1,4.83-5.58l-26.41,24.36a56.49,56.49,0,0,1,10-6.81l-32.21,17A154.48,154.48,0,0,1,512.12,558l-36.77,8.25a170.75,170.75,0,0,1,43.54-3.81l-37.65-1.75a168.11,168.11,0,0,1,43,7.8l-34.67-11.18a137,137,0,0,1,30.59,14.12L489.91,552A86.94,86.94,0,0,1,505,564.43L480.65,538a60.11,60.11,0,0,1,8.51,11.77l-17-32.2a47.08,47.08,0,0,1,3.94,10.72l-8.25-36.77a51,51,0,0,1,.8,5.77,105.81,105.81,0,0,0,16.77,52.87,105.32,105.32,0,0,0,32.88,42.52,105.33,105.33,0,0,0,47.58,25,105.86,105.86,0,0,0,55,7.33l36.77-8.25a140.41,140.41,0,0,0,58.61-41.4l19.41-30.24a139.91,139.91,0,0,0,12.93-72.32c-.18-25.29-8.65-43-19.57-63.65-5.6-10.58-9.91-19.12-17-28.11-12.69-16.06-26.55-30.74-40.62-45.71a125.28,125.28,0,0,0-21-18.33C638,308.71,624.67,299,610.75,292.33c-1.85-.88-3.74-1.69-5.66-2.4a423.78,423.78,0,0,0-41.15-13.23,82.1,82.1,0,0,0-15.43-2.28c-17-1.08-35.8-2.9-53.38-1.39-10.54.91-21,2.9-31.36,4.86-11,2.07-21.82,4.59-32.74,7-11.39,2.56-23.1,4.73-34.21,8.53a106.36,106.36,0,0,0-12.59,5.23c-12.16,5.95-24.41,12.51-36.2,19.16q-3.3,1.86-6.43,4a95,95,0,0,0-10.12,7.88c-11.84,10.55-24.86,21.25-35.41,33.52a103.12,103.12,0,0,0-7.29,9.63c-8.85,13.1-18.42,26.41-25.41,40.72-1,2.07-2,4.18-2.78,6.34-2.39,6.37-4.45,13.62-6.39,19.62-1.7,5.27-4.68,13.13-6.23,19.66-3.31,14-3.27,29-2.47,43.12.06,1,.13,2,.24,3.06L254,542.15a10.38,10.38,0,0,0,.6,2.2,138.24,138.24,0,0,0,19.67,36.7l12.18,13.21q6.49,7.23,13.19,14.27c.74.67,1.46,1.32,2.24,1.94,1.63,1.3,3.39,2.45,5.12,3.62,11.71,7.9,23.7,15.66,35.82,22.93a155,155,0,0,0,25.87,12.36c15.21,5.64,30.81,10.51,46.37,15.06q7.14,2.07,14.42,3.59a219.9,219.9,0,0,0,28.8,4c21.52,1.57,43.49,3,65.17,2.27a259.4,259.4,0,0,0,31.6-2.83c21.43-3.33,43-7.8,63.63-14.51,20.43-6.63,40.15-17.63,58.08-28.88a94.57,94.57,0,0,0,11.84-8.86C700.24,609,714,597.68,724.24,585.08L478.39,469.37a12.87,12.87,0,0,1-.52,2.54l11.18-34.67a19.27,19.27,0,0,1-1.62,3.4l19.4-30.24a23.8,23.8,0,0,1-2.46,2.94L530.79,389a35.24,35.24,0,0,1-6.61,4.7l32.2-17c-7,3.67-14.64,6.14-22,8.83q-13.19,4.78-26.52,9.13c-17.43,5.66-35.06,11-52.93,15.09l36.77-8.25c-13.75,3.05-27.66,5-41.78,4.48l37.65,1.74a101.3,101.3,0,0,1-24.18-4.26L498,414.59a102.9,102.9,0,0,1-23.12-10.84l30.24,19.41a104.56,104.56,0,0,1-19.56-16.42L510,433.15a100.19,100.19,0,0,1-12.39-17L268.21,578.58c10.27,12,20.91,24.08,32.43,34.92a124.07,124.07,0,0,0,11.6,9.62c12.8,9.41,26.54,17.67,40,26q6.11,3.78,12.42,7.19c27.83,15,58.17,25.18,88.6,33.41A159.93,159.93,0,0,0,483.36,695c16.61,1.24,33.5,2.43,50.19,2.09A115.84,115.84,0,0,0,547.6,696c15.76-2.28,31.4-6.43,46.81-10.21a107.11,107.11,0,0,0,11.91-3.67,112.58,112.58,0,0,0,10.73-4.72c14.2-7.07,29-14,42.26-22.91a97.84,97.84,0,0,0,10.8-8.43c10.56-9.44,24.89-21.08,34.78-33.18q2-2.48,3.85-5.13c7.64-11.13,15.22-22.81,22.09-34.44a75.26,75.26,0,0,0,6-13,104.64,104.64,0,0,0,12.06-53.49,106.51,106.51,0,0,0-7.39-55.59,105.75,105.75,0,0,0-29.21-45.41,106.2,106.2,0,0,0-42.43-32.61L635.22,362a141.49,141.49,0,0,0-74.41,6.51l-32.2,17a141.08,141.08,0,0,0-45.82,54.6,77.6,77.6,0,0,1-7.53,15.43l19.41-30.24a85.62,85.62,0,0,1-12.87,15.24l26.41-24.37a99,99,0,0,1-20.1,14.12l32.21-17a110.74,110.74,0,0,1-26.08,9.56L531,414.61a122,122,0,0,1-30.92,2.44l37.65,1.75a170.88,170.88,0,0,1-42.36-8.08l34.67,11.18A263.86,263.86,0,0,1,471,394.16l30.24,19.41a134.06,134.06,0,0,1-24.67-20.07l24.37,26.41c-1.14-1.23-2.25-2.49-3.34-3.76A106.12,106.12,0,0,0,458.08,380a105.88,105.88,0,0,0-49.8-20.89,106.52,106.52,0,0,0-56,2.38,104.56,104.56,0,0,0-50.58,21.17l-26.41,24.36A140.42,140.42,0,0,0,244.66,472l-1.74,37.65a139.85,139.85,0,0,0,25.29,69c9.64,16.69,24.89,31.07,37.78,44.52a107.6,107.6,0,0,0,18.53,15.32c15.44,10.21,32.35,22.92,50.5,29.29,18.34,6.43,38.75,14.68,58.85,16.21,21.63,1.65,44.42,3.67,66.2.48,4.77-.69,9.49-1.61,14.2-2.61,17-3.63,34-7.24,50.83-11.69,19.92-5.27,39.63-11.45,59.07-18.28,9.92-3.48,20.22-6.7,29.62-11.43,28.88-14.54,45-21.83,66.29-46.89a148.08,148.08,0,0,0,22.06-33.8c.36-.77.65-1.53,1-2.32l11.18-34.67a12.19,12.19,0,0,0,.52-2.54l1.75-37.64a105.81,105.81,0,0,0-16.77-52.87,70.28,70.28,0,0,0-20.7-29.31,106,106,0,0,0-42.43-32.61L642,356.55l-37.64-1.74a105.81,105.81,0,0,0-52.87,16.77A105.32,105.32,0,0,0,509,404.46a88.56,88.56,0,0,1-8.13,8.75l26.41-24.36a96.92,96.92,0,0,1-19.37,13.57l32.2-17a140.88,140.88,0,0,1-34.22,12.12l36.77-8.25c-21.39,4.63-43.54,5.93-65.38,4.92l37.65,1.74a214.75,214.75,0,0,1-53.76-9.37l34.66,11.18a161.73,161.73,0,0,1-37.05-17.4L489,399.74a53.29,53.29,0,0,1-9.75-7.53l24.36,26.41a13.74,13.74,0,0,1-1.7-2.38l17,32.2a19,19,0,0,1-1.53-4.32l8.25,36.77a26.38,26.38,0,0,1-.17-4.62l-1.75,37.65a39.2,39.2,0,0,1,1.3-6.25l-11.18,34.67a84.78,84.78,0,0,1,8.75-17.83l-19.4,30.24a102.16,102.16,0,0,1,15.43-18.53l-26.42,24.36a101.26,101.26,0,0,1,20.88-14.82l-32.2,17c9.44-4.83,19.48-7.93,29.77-10.32l-36.77,8.26c19.68-4.41,40.27-8.83,60.53-8.18l-37.65-1.75a82.32,82.32,0,0,1,19.9,3.36L482,543a77.57,77.57,0,0,1,16.62,7.87l-30.25-19.41a123.72,123.72,0,0,1,23.39,20.31l-24.36-26.41c8.39,9.24,17.57,19.22,23.68,30.15l-17-32.2a33.09,33.09,0,0,1,2.32,6l-8.25-36.77a25.64,25.64,0,0,1,.47,4.78l279.93-24.49c-.66-8.15-3.19-16.41-4.93-24.16-1.61-7.2-3-16.36-5.73-23.89a194.69,194.69,0,0,0-22.36-42.34c-8.95-13.06-20.8-24.42-32-35.38a80.36,80.36,0,0,0-10.5-8.62c-11.22-7.8-23.06-15.14-34.69-22.32q-2.9-1.78-5.9-3.37a138,138,0,0,0-13.26-6.09c-20-8-40.9-15.06-62.08-19.35-21.47-4.34-44.63-4.4-66.09-4.94a163.75,163.75,0,0,0-30.24,2c-43.65,7-84.55,18.9-121.54,43.94-.83.57-1.65,1.15-2.45,1.77-9.88,7.68-19.82,17.49-28.71,26.28a46.57,46.57,0,0,0-4.83,5.58c-16.59,22.45-30.41,46.28-33.9,74.69-3.94,32.06-3.13,35,2.71,61,5,22.43,3.53,18.9,14.21,39.07,11.44,21.63,13,26.36,35.25,45.86a137.1,137.1,0,0,0,34.64,22.35A104.64,104.64,0,0,0,409.66,617a106.45,106.45,0,0,0,55.6-7.38,105.89,105.89,0,0,0,45.4-29.22,106.09,106.09,0,0,0,32.62-42.43l11.18-34.66A141.43,141.43,0,0,0,548,428.86l-17-32.2a141.18,141.18,0,0,0-54.61-45.82Z"/><text class="cls-2" transform="translate(343.77 692.44) rotate(-3.53)">Live</text><text class="cls-3" transform="translate(343.77 692.44) rotate(-3.53)">Live</text><text class="cls-4" transform="translate(200.68 589.19) rotate(-3.53)">S<tspan class="cls-5" x="97.12" y="0">pORt</tspan><tspan x="441.2" y="0">u</tspan><tspan class="cls-5" x="539.25" y="0">p</tspan></text><text class="cls-6" transform="translate(199.62 589.26) rotate(-3.53)">S<tspan class="cls-5" x="97.13" y="0">pORt</tspan><tspan class="cls-7" x="441.2" y="0">u</tspan><tspan class="cls-5" x="541.37" y="0">p</tspan></text><path class="cls-8" d="M519.11,153.62c.54,0,.55,0,0,0,.27.07.53.16.8.25s.8.28,1.22.39a23,23,0,0,0,3.8.52,35.54,35.54,0,0,0,6.44.07,120.71,120.71,0,0,0,13.7-2.73,4.53,4.53,0,0,0,3.14-5.54,4.59,4.59,0,0,0-5.53-3.14q-3.21.72-6.43,1.41l-2.75.58-1.9.37-.47.08c.4-.05.32,0-.24,0a40.91,40.91,0,0,1-6-.12l-.87-.08c.39.07.43.07.1,0-.49-.12-1-.23-1.46-.39a10.69,10.69,0,0,0-3.62-.67,4.5,4.5,0,0,0,0,9Z"/><path class="cls-8" d="M289.64,228.26a79.76,79.76,0,0,0,11.09-6.83c3.66-2.65,7.06-5.53,9.48-9.39a4.55,4.55,0,0,0-1.61-6.16,4.6,4.6,0,0,0-6.16,1.61c-.25.41-.53.79-.79,1.19s.52-.62.12-.16c-.13.16-.26.33-.4.49a25.45,25.45,0,0,1-2,2c-.67.62-1.36,1.2-2.07,1.77-.45.36-.08,0,.16-.12a3.69,3.69,0,0,0-.64.48l-1.17.85a80.29,80.29,0,0,1-10.57,6.46,4.51,4.51,0,0,0-1.62,6.15,4.61,4.61,0,0,0,6.16,1.62Z"/><path class="cls-8" d="M751.64,281.34a34.6,34.6,0,0,0,3,4,38.36,38.36,0,0,0,2.63,3.07,58.28,58.28,0,0,0,6.72,5.31L763,293a14.35,14.35,0,0,1,2.13,2,4.53,4.53,0,0,0,3.18,1.32,4.58,4.58,0,0,0,3.19-1.32,4.5,4.5,0,0,0,1.31-3.18,5,5,0,0,0-1.31-3.18c-1.85-2.16-4.4-3.57-6.63-5.29l.91.71a32.13,32.13,0,0,1-5.34-5.71l.7.91a20.77,20.77,0,0,1-1.75-2.43,4.55,4.55,0,0,0-6.16-1.62,4.6,4.6,0,0,0-1.62,6.16Z"/><path class="cls-8" d="M797,698.65a64.07,64.07,0,0,1,4.63-8.84c.88-1.39,1.81-2.75,2.79-4.06a5.46,5.46,0,0,0,.36-.48c-.13.21-.52.66-.16.2l.75-.93q.85-1,1.74-2a4.56,4.56,0,0,0,0-6.36c-1.71-1.57-4.69-1.88-6.36,0a66.64,66.64,0,0,0-11.52,18,5,5,0,0,0-.45,3.47,4.61,4.61,0,0,0,2.07,2.69,4.53,4.53,0,0,0,3.47.45,4.28,4.28,0,0,0,2.68-2.07Z"/><path class="cls-8" d="M498.18,808.92c1.93-.57,3.86-1.14,5.84-1.54.45-.09.9-.17,1.36-.24-.78.11.7,0,.86-.07a19.75,19.75,0,0,1,3,0c1.39.12-.8-.19.57.08l1.31.26,3.17.71,6,1.34a4.5,4.5,0,1,0,2.39-8.68c-4.44-1-8.92-2.27-13.46-2.71s-9.12.84-13.44,2.12a4.5,4.5,0,1,0,2.4,8.68Z"/><path class="cls-8" d="M276.88,740.1l.54.22-1.08-.46a18.62,18.62,0,0,1,3.79,2.26l-.91-.7a32.73,32.73,0,0,1,5.65,5.93l-.7-.91c.84,1.09,1.65,2.21,2.45,3.33a4.84,4.84,0,0,0,2.69,2.07,4.62,4.62,0,0,0,3.47-.45,4.52,4.52,0,0,0,2.06-2.69,4.43,4.43,0,0,0-.45-3.47,66.28,66.28,0,0,0-6.22-7.84,29.9,29.9,0,0,0-4.12-3.5,21.87,21.87,0,0,0-4.78-2.47,4.53,4.53,0,0,0-3.47.45,4.65,4.65,0,0,0-2.07,2.69,4.57,4.57,0,0,0,.46,3.47,5.19,5.19,0,0,0,2.69,2.07Z"/><path class="cls-8" d="M155.79,419.72c.06.21.27,1.83.2.85,0,.42.06.83.06,1.25a29,29,0,0,1-.18,2.94c-.1.83-.21,1.67-.32,2.5,0,.28-.07.55-.11.83.07-.5.07-.48,0,.06l-.18,1.25a48,48,0,0,1-2.75,10.94c-.88,2.19,1,5,3.14,5.54,2.61.59,4.59-.8,5.54-3.14A50.32,50.32,0,0,0,164.05,431c.65-4.5,1.57-9.13.42-13.63a4.54,4.54,0,0,0-5.53-3.14,4.59,4.59,0,0,0-3.15,5.53Z"/><path class="cls-1" d="M769.54,251.34c0-2.77,3.92-4.43,5.94-5.65a25.43,25.43,0,0,1,9.45-3.89c3.17-.51,5-4.48,4.16-7.33-1-3.38-4.12-4.66-7.32-4.16-5.69.9-11,4-15.69,7.24-4.83,3.35-8.37,7.68-8.45,13.79-.09,7.66,11.81,7.66,11.91,0Z"/><path class="cls-1" d="M252.34,743.22c-6.8,6.26-13.72,15.84-8.07,25.24,5,8.32,17.25,11.37,26.21,11.8,7.66.37,7.64-11.54,0-11.9-4.8-.23-11.32-1.47-15-4.94-4.09-3.89,2.5-9.25,5.25-11.78,5.65-5.2-2.79-13.6-8.42-8.42Z"/><path class="cls-1" d="M543.28,107.3v-1.17a5.63,5.63,0,0,0-.64-2.89,5.69,5.69,0,0,0-1.55-2.41,8.42,8.42,0,0,0-5.31-2.2l-2,.27a7.46,7.46,0,0,0-3.31,1.93l-1.17,1.52a7.48,7.48,0,0,0-1,3.78v1.17a8.42,8.42,0,0,0,2.2,5.31,8.28,8.28,0,0,0,5.3,2.19l2-.26a7.55,7.55,0,0,0,3.31-1.93l1.17-1.52a7.41,7.41,0,0,0,1-3.79Z"/><path class="cls-1" d="M124.52,413.89c-10.94-9.32-25.48,3.22-19.29,15.8,5.83,11.83,23.63,12.49,35,12.41,9.65-.07,9.67-15.07,0-15a69.45,69.45,0,0,1-15-1.35c-1.84-.4-3.86-1.49-5.62-1.76-.2,0-.78-.67-1-.66-2.6.09-1.19,4.25-4.8,1.17,7.31,6.23,18-4.33,10.61-10.61Z"/><path class="cls-1" d="M787.53,235.48c-4.91.94-9.46,5.14-12.7,8.76l12.54,7.29-1.07,1.86c.52-.47.57-.53.13-.18-.71.68.61-.41.7-.47.34-.21.69-.42,1-.62s2.05-1,.39-.29a8.29,8.29,0,0,0,4.49-3.44,7.63,7.63,0,0,0,.75-5.78c-1.12-3.46-5.35-6.87-9.22-5.24-5.06,2.13-9.68,4.75-11.69,10.18-2.6,7,7.68,12.72,12.54,7.29a40.76,40.76,0,0,1,3.85-3.7c.83-.71-.94.6,0,0,.35-.22.68-.48,1-.7s.7-.41,1-.62c.78-.47-1.47.41.18.1,3.86-.74,6.42-5.59,5.24-9.23-1.34-4.12-5.09-6-9.23-5.24Z"/><path class="cls-1" d="M549.63,89.48a10.85,10.85,0,0,1,3.08,9.78l14.74,2,.19-4-7.5,7.5,1,.1-3.78-1-1.77-2.06v-4l-.29,1c-2.66,8.77,8.91,12.1,13.71,5.78,6-7.89-.51-16.17-7.06-20.72l-3.78,14,1,0-3.78-1c-1-1.72-1.2-1.81-.68-.28.23,1.14.45,2.29.66,3.44.42,2.3.88,4.6,1.21,6.91.6,4.21,1,8.73-.85,12.68-3.76,7.82-13.72,11-21.24,13.73L540.27,147c8.58-4.54,15.88-12.8,22.91-19.41,6.85-6.45,11.93-14.42,11-24.19A25.55,25.55,0,0,0,559.58,82.6,27.32,27.32,0,0,0,546.09,80a32.5,32.5,0,0,0-6.34,1.18c-1.32.37-4.92,2.32-6.31,1.61-8.6-4.34-16.2,8.59-7.57,13a17.32,17.32,0,0,0,11.56,1.67c3.4-.61,6.61-2.37,10.08-2.49,5.47-.19,10.76,3.45,11.65,9,1,6.44-4,10.69-8.28,14.62-5.66,5.21-11.35,11.88-18.18,15.5-7.39,3.9-2.31,16.64,5.77,13.7,13.69-5,29.53-11.89,32.86-27.78,1.62-7.71,0-15.51-1.34-23.13-1.24-6.8-3.59-13.92-11.79-14-7.89-.09-9.61,9.94-3.79,14A8.74,8.74,0,0,1,556.06,98q1.13,1.43,0-1l13.71,5.78c2.1-7-3-12.34-9.66-13-4.18-.39-7.32,3.77-7.5,7.5l-.19,4c-.4,8.34,13.06,10.35,14.73,2a26.7,26.7,0,0,0-6.94-24.37c-6.68-7-17.27,3.62-10.61,10.61Z"/><path class="cls-1" d="M503.14,103.89c2.93-10.56,11.86-14.74,22-16.54,7.48-1.33,19.76-3.44,25,3.78,5.86,8.09,6.67,20,1.52,28.48-5.72,9.39-14.51,9.92-24.33,12.16-9.4,2.14-5.42,16.6,4,14.46,6.74-1.53,13.7-2.3,19.9-5.61,6.41-3.42,11.71-9.74,14.9-16.19,6.68-13.46,4.7-32.12-5.17-43.75-9.6-11.29-25.72-10.17-38.92-8-15.62,2.62-28.92,11.32-33.32,27.17-2.59,9.32,11.88,13.29,14.47,4Z"/><path class="cls-1" d="M804,241.47c-11.24-3.89-25.15-.5-32.41,8.21a22.89,22.89,0,0,0,1,30.22c7.95,8.19,22.81,10.08,32.73,3.91,5.33-3.32,9-8.47,11.49-13.88,4-8.62,4.29-20.34-4.3-25.49a20.06,20.06,0,0,0-11.36-2.38c-14.11.78-26.18,13.12-25.34,25.93.16,2.45.86,5.07,2.94,6.64a12.48,12.48,0,0,0,5.66,1.85c7,1.07,14.87,1.49,20.2-2.69,6-4.71,5.68-14.17,0-19.25s-15.08-5.73-22.13-2.4c-2.63,1.24-5.08,3.07-6.23,5.55-2.32,5,1.71,11.09,7.38,12.72s12-.51,16.37-4.21c3.55-3.05,5.93-8.39,2.78-11.79a11.71,11.71,0,0,0-3.63-2.33c-5.06-2.37-11-4.27-16.37-2.65s-9.05,8.24-5.39,12.2c1.65,1.78,4.28,2.57,6.82,2.91,9.18,1.24,20.5-5.44,18.08-13.57a12.51,12.51,0,0,0-4.94-6.23c-12.28-8.85-33.34-1.37-37.18,12.42S769,286,784.6,287.79c13.71,1.58,28.07-6.47,32.57-18.33s-1.4-26.25-13.39-32.5a25.15,25.15,0,0,0-12.17-3c-12.21.33-21.57,12.79-18.7,23.57s16,17.94,28.07,16.56l-1.76-4.85"/><path class="cls-1" d="M806,234.24c-14.44-4.59-31.88-.4-41.16,12S757.42,277,769.26,287c11.4,9.61,29.61,10.86,41.78,2,11.55-8.45,19.7-25.79,14.38-39.91-6.15-16.33-26.86-17.54-40.26-9.72-11.75,6.86-23,25.16-13.79,38.23,4.68,6.6,14.79,7.39,22.25,7.13,7.77-.27,15.86-3,20.09-10a20.77,20.77,0,0,0-.43-21.43c-4.16-6.59-11.59-9.93-19.14-10.57s-16.26,1.81-21.58,7.43c-5.69,6-5.52,14.72-.5,21,10.31,12.95,34,7.3,38.9-8.07,5.84-18.11-23.16-26.93-35.29-18.3-6,4.31-9.42,12.85-5.4,19.68,4.34,7.38,14.4,8.64,22,7.08,6.81-1.39,13.65-5.68,16.51-12.19,3.25-7.42,0-15.12-6.09-19.91-10.58-8.33-26.35-7.54-37.33-.28-12.28,8.12-16.64,22.67-10.22,36.06,6.5,13.54,22,21.67,36.77,20s29.88-11.62,33.37-26.91c3.29-14.42-3.89-29.74-16.53-37.18-13.83-8.14-31.57-5.2-40.08,9-8.08,13.42-2,29.18,11,36.71A36.61,36.61,0,0,0,801,281.57c4.45-.39,9-4.54,7.23-9.5l-1.76-4.84c-3.28-9-17.78-5.12-14.47,4l1.77,4.85,7.23-9.49c-7.07.61-15-1.43-19.23-7.61-3.65-5.34-1.26-11.91,3.79-15.41,13.2-9.16,29.19,9.76,24.82,22.69-5.11,15.13-26.84,18.47-37.65,7.92-4.21-4.11-7.3-10.54-4.78-16.35,2.4-5.53,9.16-8.75,14.85-9.32,2.52-.26,13.34.79,12.18,5.16-.59,2.24-5.5,3.31-7.34,3.5-1.22.12-3.65-.6-4.4-.27l.09.71c0,.85.08,1,.2.3,0,0,1.23-1.17,1.34-1.23,2.45-1.41,10.06.55,11.9,2.55-.65-.71.32-.54-1,.71a12.23,12.23,0,0,1-5.39,3.15c-2.12.58-6.86.79-7.27-2.36,0,.18.77-.76,1.91-1.43a13.63,13.63,0,0,1,5.2-1.63c4.59-.52,15,3,10.51,9.47-1.89,2.74-6.57,2.64-9.44,2.55a39.6,39.6,0,0,1-5.64-.55c-2.06-.36-2.32.31-2.36-1.8-.14-7.32,5.4-13.63,11.94-16.36,6-2.52,15.74-2.48,16.73,5.66,1,8-4.61,17.74-11.59,21.39-6.81,3.56-16.4,2.32-22-2.95-5.84-5.51-5.89-15.25-.56-21.1,6-6.62,16-7.85,24.21-5.26,9.22,2.93,13.17-11.55,4-14.46Z"/><path class="cls-1" d="M802.31,683.74c-9.43,8.35-14.52,26-6.65,36.7,10,13.57,30.82,19.2,45.74,10.82,13.36-7.51,19.14-25.89,12.47-39.66-6.78-14-27.94-19.92-41.91-14.48-8,3.11-13.55,10.44-13.5,19.19,0,8.38,5,16.21,11.35,21.35,7,5.65,16.47,9.39,25.29,5.93a18.22,18.22,0,0,0,11.5-20.7c-3.77-17.49-31.72-26-38.43-6A14.85,14.85,0,0,0,817.58,716c8.11,2.58,15.89-3.11,16.85-11.31,2.12-18-23.92-26.19-32.59-10.36-4.27,7.78-2,17.91,4.17,24,7.61,7.55,18.58,7,27.73,3,3.75-1.62,4.52-7,2.7-10.26-2.2-3.87-6.57-4.29-10.27-2.69-2.69,1.16-6.6,1.62-9.09-.29-1.42-1.09-3.32-4.51-2.08-6.28a2.42,2.42,0,0,1,2.56-.74c.4.11,2,1.81,1.52,1.73.86.15,2.3-1.76,3.59-1.71.08,0,.61.86.5.89-.3.06.17.16.07.16.08,0,.4-.71.6-.7a6.63,6.63,0,0,1,5.81,3.67c.82,1.77.83,2.48-1.35,2.81-2.88.44-6.63-2.59-8.51-4.44-3-2.91-6.4-8.66-.8-10.38,5.16-1.59,13,.22,17.13,3.58,3.89,3.17,3.89,8.72,2.17,13.07-2.26,5.69-7.52,8.61-13.53,8.35a23.29,23.29,0,0,1-11-3.63c-1.9-1.16-5.34-4.14-5.56-5.12-1-4.55,2.1-11.38,5.36-14.41,7.55-7-3.64-18-11.27-11.27Z"/><path class="cls-1" d="M280.79,739c-11-9.22-26-8.41-36.71,1.07-10.09,8.89-11,25.17-2.73,35.54,7.94,9.91,22.32,14.74,34.73,12.8,11.65-1.83,21.28-11.06,20.3-23.47-.9-11.29-8.73-23.27-18.92-28.39-11.95-6-25.55,3-27.95,15.52a19.14,19.14,0,0,0,5.29,17.51c5,4.83,11.81,6,18.48,6.45,6.43.39,13-2.71,13-10,.08-6.39-4.68-12.39-9.33-16.34-5-4.24-12-6.21-17.54-1.83-4.54,3.59-6.66,10.07-5.91,15.73,1.67,12.69,18.23,13.92,24,3.58a4.35,4.35,0,0,0,0-4.41,23.53,23.53,0,0,0-17.52-10.08,4.42,4.42,0,0,0-3.93,2.25c-3.37,6.71,3.28,17.79,10.95,12.15,3.21-2.37,1.49-8.14-2.89-6.86,1.42-.41-.72.36-.21-.7l-3.92,2.25c4.58.35,7.81,2.87,10.66,6.28l-.68-5.29c-2.69,6.36-11.08,2.41-7.76-3.62,4-7.21,9.26,2.17,11.92,5.4.08.1.63,2.61.82.4.13-1.55.53-.36-.94-.85-1.65-.54-3.8-.31-5.51-.7-3-.68-6.35-2.24-7-5.59-.76-4.16,4.08-10.73,8.62-9.58,7.75,1.95,17,16.76,11,23.82-7.26,8.55-25,2.36-30.21-5.48-3.6-5.45-2.47-13.3,2.82-17.2a23.12,23.12,0,0,1,8.9-3.93c4.15-.72,8.74,1.69,12.81,2.47,4.73.9,9.65-5.19,5.19-8.94Z"/><path class="cls-1" d="M514.17,104.81c2.19-3.26,6.65-4,10.36-5.49S532,94,530.16,90.53a7.77,7.77,0,0,0-3.73-3c-5.81-2.86-12.67-4.3-18.91-2.46S496,92.55,496.28,98.86s5.7,11.49,11.83,13.56,12.82,1.65,19.28,1c7.06-.66,14.47-1.63,20.14-5.77s8.66-12.5,4.54-18.09c-3.08-4.18-8.83-5.46-14.09-6-7.17-.77-15.38-.41-20.25,4.76-3,3.16-4.1,7.63-4,11.91.23,11.72,9.77,22.65,21.66,24.83s24.88-4.61,29.53-15.44a9.7,9.7,0,0,0,.88-6.28c-.88-3.24-4.24-5.17-7.34-6.68-8.61-4.2-17.89-7.93-27.52-7.5S511.32,95.33,509,104.39c-2.56,10,5.93,20.83,16.44,22.45s21.33-5,25.86-14.3c1.39-2.87,2.27-6.12,1.5-9.2-1.55-6.15-8.69-9-14.91-11-7.77-2.46-15.77-4.94-23.92-4.43S497.37,92.65,494.43,100c-4.35,10.92,5.61,23.15,17.24,26.29,18.5,5,40.29-10,39.91-28.59-.13-6.23-2.81-12.81-8.37-16a21.31,21.31,0,0,0-9.59-2.37c-17.42-.75-34.54,11.42-39,27.75a18.44,18.44,0,0,0-.35,10.09,21.78,21.78,0,0,0,4.52,7.43c6.33,7.53,14.53,14.13,24.33,16.14s21.28-1.66,25.88-10.28"/><path class="cls-1" d="M519.47,110.11c1.95-2.4,5.2-2.78,7.95-3.94a18.26,18.26,0,0,0,9.11-7.8c4.78-8.68-1.9-15.66-9.58-18.8-14.81-6-37-1.15-38.14,18-.45,7.77,4.3,14.69,10.53,18.89,7.4,5,16.78,5.44,25.4,4.78,15.49-1.18,36.12-5.8,36.72-25.13.56-18.13-22-22-35.75-19.69-17.76,3-23.32,21.8-16.39,36.8a34.34,34.34,0,0,0,37.71,19,35.11,35.11,0,0,0,19.19-11c5.21-6,9.86-15,5.6-22.8-3.78-6.9-12.76-10-19.63-12.66-8.48-3.32-17.65-5-26.69-3.42-15.08,2.71-28.06,16.6-23.44,32.51,4.47,15.38,21.91,23.29,36.66,18,14-5,29.49-23.73,17.85-38.12-4.77-5.9-12.38-8.3-19.37-10.45-9.1-2.8-18.58-4.93-28.1-3.24-15.72,2.79-27.82,17.71-21.29,33.59,12.87,31.29,58.73,22.75,69.31-5.57,5.56-14.89-1.34-33.69-18.18-36.55-15.51-2.65-32.17,3.93-42.35,15.8a41.69,41.69,0,0,0-10.06,21.22c-1.28,9.25,3,16.24,9,22.81,10.8,11.72,27.08,20.07,43.17,15a29.17,29.17,0,0,0,16.76-13c4.88-8.36-8.08-15.91-13-7.58-4.09,7-13.24,8.32-20.46,6.05a33,33,0,0,1-12-7.21c-3-2.69-7.29-6.36-8.55-10.33-2.49-7.84,5.83-17.67,11.55-21.9,6.52-4.82,17.11-8.72,25.15-5.65,7.74,2.94,6.71,13.74,3.28,19.54a26.89,26.89,0,0,1-18.67,12.3c-7.7,1.19-15.69-1.69-20-8.36-4.91-7.58,1.29-13.85,8.88-15.42,5.35-1.1,10.91,0,16.1,1.38,4.6,1.22,9.6,2.42,13.85,4.62,3.66,1.9,4.8,3.69,2.89,7.61a18.77,18.77,0,0,1-8.93,8.62c-7,3.26-15.78,1.11-18.85-6.52-3.16-7.84,5.41-13.42,12.08-14.57,5.08-.87,10.3.23,15.14,1.78a69.13,69.13,0,0,1,7.47,2.91c1.6.73,5.76,2,6.7,3.47,1.06,1.69-2.65,5.91-4.39,7.5A21,21,0,0,1,543,117.74,19.17,19.17,0,0,1,523.49,108c-3.86-6.75-3.23-15.78,5.66-17.08,5.5-.81,23.78.5,15.06,9.72-3.3,3.49-9,4.38-13.54,5-6,.79-12.92,1.65-18.89.07-3.19-.85-7.94-3.27-8-7.17-.1-4.21,5.07-6.48,8.53-6.79a19.59,19.59,0,0,1,8.39,1.4,25.16,25.16,0,0,0,3.07,1.4l-.45-3.18a3.56,3.56,0,0,1-1.32.91c-4.61,1-10.11,3.54-13.11,7.23-2.58,3.17-3,7.5,0,10.61,2.61,2.67,8.06,3.13,10.6,0Z"/><path class="cls-1" d="M128.16,417.33c-7.64-2.45-14.6,2.79-15.13,10.66s4.76,14.8,11.58,18.16c14.41,7.11,34.84-1.17,35.29-18.64.93-35.93-60.29-43-64.25-6.1-2,18.38,13.72,30.43,30.82,30.51,15.1.06,38.46-11.32,28.95-29.86a20.25,20.25,0,0,0-7.82-8.28,14.16,14.16,0,0,0-6.35-1.82c-1.62-.09-3.87.6-5.35.13-3.13-1-5.72-4.86-8.62-6.48-4.34-2.43-8.86-2.63-13.62-1.56C98,407.57,87,421.66,95.6,437.19c9.82,17.7,34.68,22.61,51.16,11.47,16.93-11.46,12.45-34.1-3-44.59-8-5.43-15.52,7.56-7.57,12.95,5.22,3.55,9.47,12,4.49,17.36-5.83,6.28-17.32,6.78-24.35,2.73-4.85-2.8-13-10.52-6.31-15.47,2-1.46,6-3.41,8.52-3.33,3.52.12,7.24,5.37,10.39,7a16.05,16.05,0,0,0,7.14,1.91c1.2,0,3.53-.72,4.55-.2,3.92,2,1,5.1-1.27,6.55-6.57,4.26-18.4,5.21-24.73-.11a12.33,12.33,0,0,1-.8-17.62c5.19-5.41,14.24-5.19,20.76-2.65,5.7,2.21,14.9,12.53,8.2,18.35a10.75,10.75,0,0,1-10.43,1.63c-1.73-.66-2.57-1.76-4-2.84-.35-.27-.28-1.21-.43-1.32s-4.43,2.54-3.77,2.75c9.21,3,13.15-11.52,4-14.46Z"/><path class="cls-1" d="M280.17,192.43c-4.07-5.17-11.67-5-16.84-1.7-6.44,4.16-8.21,12.11-4.91,18.87,6.89,14.11,29.3,17.19,40.71,7.26,5.48-4.76,8.54-12.32,7.16-19.53s-7-13.07-13-17c-11.77-7.86-29.31-8.78-40.84,0-5.85,4.46-9.64,11.4-8.07,18.87,1.62,7.77,8.44,13.56,15.1,17.23C270.82,222.64,295,227.61,299,210A13.28,13.28,0,0,0,297,199.43c-1.65-2.37-5.57-3.68-6.52-5.68-1.34-2.8-.79-6.06-2.61-8.92-2.22-3.5-6-5.26-9.67-6.72-12.15-4.75-29.24-5-35,9.16-7.41,18.09,11.51,32,27.12,34.95,8.17,1.54,17,1,24-3.93,7.27-5.15,11-14,8.65-22.73-2.52-9.31-17-5.36-14.47,4,1.95,7.2-8.1,8.94-13.08,8.38-6.13-.7-14.74-3.58-17.75-9.46-2.85-5.56,1-8.64,6.35-8.42a28.9,28.9,0,0,1,8.41,1.83c.76.27,3.29,1.68,2.83,1,.82,1.19.55,3.83.86,5.14a14.36,14.36,0,0,0,6,8.74c.36.23,1.37,1,1.8,1l.62.32a1.81,1.81,0,0,0-.19-1.44c-.25-.1-2.43.51-2.95.54-7,.42-15.8-3.1-20.56-8.31-5.07-5.54,3.88-9.09,8.62-9.69a23.53,23.53,0,0,1,17.64,5.07c2.48,2.07,5.43,5,4.19,8.47-1.14,3.2-4.45,4.65-7.6,4.92-3.47.29-8-.75-10.64-3.19-.32-.31-1-1.48-1.42-1.82s-.14.55-.1.57c1,.49-3.93-2.67-2-.19,2.52,3.21,8,2.59,10.61,0,3.18-3.11,2.49-7.44,0-10.61Z"/><path class="cls-1" d="M279.31,209.19c9.65,0,9.67-15,0-15s-9.67,15,0,15Z"/><path class="cls-1" d="M255.76,188.69c3.33-10.05,22.51-6.19,30.11-5.7s7.62-11.41,0-11.9c-14.7-1-35.74-3.18-41.59,14.43-2.42,7.29,9.07,10.41,11.48,3.17Z"/><path class="cls-1" d="M258.9,192.55c2.52-7.52,11.41-10.67,18.73-10.57,3.31,0,6.84.54,9.13,3.14,1.62,1.85,5.07,7.12,2.08,8.89-8.31,4.9-.77,17.87,7.57,13,17.18-10.13,5.58-35-10.48-39-16.57-4-35.88,3.83-41.49,20.56-3.08,9.17,11.4,13.11,14.46,4Z"/><path class="cls-1" d="M242,197.31c-.83,11,6.44,20.17,15.64,25.35,10.83,6.09,20.95,4.59,31.66-.75,9.28-4.63,16.81-11,18.33-21.86,1.47-10.44-3.84-20.3-12.71-25.69a6,6,0,0,0-6,0c-.74.44-9.05-5-10.23-5.63l2.13,8.15c-1,1.44.68.8,1.72.9a12.88,12.88,0,0,1,2.81.58,13.24,13.24,0,0,1,6,3.82,13.76,13.76,0,0,1,2.73,12.71c-1.91,7.43,9.57,10.6,11.48,3.17,2.52-9.82-.42-20.39-8.53-26.74-7.08-5.55-20.44-9-26.51-.45-1.86,2.61-.45,6.64,2.14,8.14,6.26,3.63,15,10,22.25,5.63h-6c5,3,8,8.57,6.87,14.48-1.3,6.72-6.86,9.7-12.49,12.51-6.83,3.41-12.68,4.63-19.64.75-5.78-3.22-10.27-8.11-9.75-15.07.58-7.65-11.33-7.61-11.9,0Z"/><path class="cls-1" d="M496.23,811.74c-8.29,4.81-13.09,14.61-10.32,24A18.36,18.36,0,0,0,510.24,848c10.18-3.76,18.11-13.79,14.8-25-3.49-11.86-14.25-19.41-26.21-13.68-9.21,4.42-16.35,14.82-15.61,25.2.8,11.19,10.3,19.94,21.22,21,23.23,2.32,39.17-30.12,19.35-45-19.42-14.6-46.8,9-40.8,30.74,3,10.86,15.24,18,26.18,17.4,11.95-.66,20.8-11.24,23.88-22.16,3.28-11.62-2.06-24.2-13.51-28.57a21.53,21.53,0,0,0-20.68,2.59c-.67.46-3.17,1.68-.58.84,2.82-.91-3.1,0-4,.23-13.14,3.48-15.12,17.37-11.91,28.64,3.05,10.72,10.79,19.06,22.57,19s25-6.65,28.69-18.49-.47-25.51-10.71-32.71c-9.65-6.79-23.68-5.84-32.13,2.59a25.86,25.86,0,0,0-6.51,25.62,27.06,27.06,0,0,0,1.7,4.12c.44.74,5.7,6.26,3.31,3.49l-3-5.19-.08-1.3,1.6-5.94.74-.93,5.2-3,1.27-.25,5.94,1.61.91.72,3,5.2-.23-1.15v6.25l.27-1.15-3,5.15.74-.93-5.11,3,1.09-.46c5.72-2.38,9.81-7.6,8-14.12a11.66,11.66,0,0,0-14.13-8,14.11,14.11,0,0,0-10.76,15,13.84,13.84,0,0,0,13.69,12.51c14-.09,20.15-20.15,6.64-26.55l5.41,7c-.19-.49-.86-3.06-.74-2.28.17,1.08.22-1.54,0-.77.14-.52,1.26-1.48.52-.75a3.87,3.87,0,0,1,1.35-.43,2.35,2.35,0,0,1,2,1.23c1,1.51,1,3.65.87,5.78-.1,1.77-1.08.2.35-.29-.3.11-1.74,1.21-2.43,1.51a28.68,28.68,0,0,1-4.5,1.54,27.72,27.72,0,0,1-.95-3.26c-.06-.39-.37-2.42,0-2.41.16,0-.86,1.74-.94,1.81-1,1-5.29,1.39-2.35,1.84,3.5.54,8.09-2,10.76-4.08,1-.78,1.24-1.08,0-.4,0,0-1.71-.4,0,0s-.1.13-.18-.05c-1.55-3.28-1,0-1.65,1.51-.43,1-1.15,1.81-1.66,2.74-1.37,2.54-1.14-.25.53.68-.44-.25-1.61-.47-2.27-.81-1.18-.58-2.3-2-.82-.19,1,1.28.23,1.28.67.69,1-1.29.37-1.77,1.25-2.94a29.46,29.46,0,0,1,2.69-2.33,5.93,5.93,0,0,1,1.41-.33c.07.22-1.58-.49-1.63-.44.11-.12,0-.2,0-.22a11.26,11.26,0,0,1-.3,2.13,4.42,4.42,0,0,1-1.6,1.94c-1.07.84-1.36.72-2.28.32-.57-.25-1,.27-.16-1.24a14.56,14.56,0,0,1,2.05-2.53c.32-.36.95-.77,1.16-1.22.5-1,.81.52-.89-.13l-4.47-2.6a4.3,4.3,0,0,1,1.82,2.39c.57,1.86.42-.1.28.12a6.34,6.34,0,0,1-3.28,2.21c-.24,0,.91.72.45.07a5.18,5.18,0,0,1-.69-2.22,7.47,7.47,0,0,1,2.27-5.81c4.91-5.34-1.32-14.05-7.9-10.23Z"/></svg>